<?xml version="1.0" encoding="UTF-8" standalone="no"?>
<!-- Created with Inkscape (http://www.inkscape.org/) -->

<svg
   xmlns:dc="http://purl.org/dc/elements/1.1/"
   xmlns:cc="http://creativecommons.org/ns#"
   xmlns:rdf="http://www.w3.org/1999/02/22-rdf-syntax-ns#"
   xmlns:svg="http://www.w3.org/2000/svg"
   xmlns="http://www.w3.org/2000/svg"
   xmlns:xlink="http://www.w3.org/1999/xlink"
   xmlns:sodipodi="http://sodipodi.sourceforge.net/DTD/sodipodi-0.dtd"
   xmlns:inkscape="http://www.inkscape.org/namespaces/inkscape"
   width="744.09448819"
   height="1052.3622047"
   id="svg2"
   version="1.1"
   inkscape:version="0.47pre4 r22446"
   sodipodi:docname="tank2.svg">
  <defs
     id="defs4">
    <linearGradient
       id="linearGradient3612">
      <stop
         style="stop-color:#bbbbbb;stop-opacity:1;"
         offset="0"
         id="stop3614" />
      <stop
         style="stop-color:#515151;stop-opacity:1;"
         offset="1"
         id="stop3616" />
    </linearGradient>
    <linearGradient
       id="linearGradient3613">
      <stop
         style="stop-color:#393939;stop-opacity:1;"
         offset="0"
         id="stop3615" />
      <stop
         style="stop-color:#cccccc;stop-opacity:1;"
         offset="1"
         id="stop3617" />
    </linearGradient>
    <inkscape:perspective
       sodipodi:type="inkscape:persp3d"
       inkscape:vp_x="0 : 526.18109 : 1"
       inkscape:vp_y="0 : 1000 : 0"
       inkscape:vp_z="744.09448 : 526.18109 : 1"
       inkscape:persp3d-origin="372.04724 : 350.78739 : 1"
       id="perspective10" />
    <inkscape:perspective
       id="perspective2826"
       inkscape:persp3d-origin="0.5 : 0.33333333 : 1"
       inkscape:vp_z="1 : 0.5 : 1"
       inkscape:vp_y="0 : 1000 : 0"
       inkscape:vp_x="0 : 0.5 : 1"
       sodipodi:type="inkscape:persp3d" />
    <inkscape:perspective
       id="perspective3637"
       inkscape:persp3d-origin="0.5 : 0.33333333 : 1"
       inkscape:vp_z="1 : 0.5 : 1"
       inkscape:vp_y="0 : 1000 : 0"
       inkscape:vp_x="0 : 0.5 : 1"
       sodipodi:type="inkscape:persp3d" />
    <linearGradient
       inkscape:collect="always"
       xlink:href="#linearGradient3613"
       id="linearGradient3665"
       gradientUnits="userSpaceOnUse"
       x1="216.65625"
       y1="610.9375"
       x2="646.21875"
       y2="610.9375" />
    <linearGradient
       inkscape:collect="always"
       xlink:href="#linearGradient3612"
       id="linearGradient3618"
       x1="-146.72687"
       y1="605.13873"
       x2="-72.776527"
       y2="605.13873"
       gradientUnits="userSpaceOnUse" />
  </defs>
  <sodipodi:namedview
     id="base"
     pagecolor="#ffffff"
     bordercolor="#666666"
     borderopacity="1.0"
     inkscape:pageopacity="0.0"
     inkscape:pageshadow="2"
     inkscape:zoom="0.85192308"
     inkscape:cx="62.498449"
     inkscape:cy="418.56754"
     inkscape:document-units="px"
     inkscape:current-layer="layer1"
     showgrid="false"
     inkscape:window-width="1024"
     inkscape:window-height="694"
     inkscape:window-x="0"
     inkscape:window-y="25"
     inkscape:window-maximized="1" />
  <metadata
     id="metadata7">
    <rdf:RDF>
      <cc:Work
         rdf:about="">
        <dc:format>image/svg+xml</dc:format>
        <dc:type
           rdf:resource="http://purl.org/dc/dcmitype/StillImage" />
        <dc:title></dc:title>
      </cc:Work>
    </rdf:RDF>
  </metadata>
  <g
     inkscape:label="Layer 1"
     inkscape:groupmode="layer"
     id="layer1">
    <g
       id="g3655"
       transform="translate(-160,22.857141)"
       inkscape:export-filename="/home/nikolaj/code/jplay/res/drawable/tank2.png"
       inkscape:export-xdpi="9.6300001"
       inkscape:export-ydpi="9.6300001">
      <path
         sodipodi:nodetypes="ccccccccccc"
         id="path2816"
         d="M 431.4375,860.9375 577.15625,795.21875 645.71875,699.5 530,426.65625 511.4375,386.0625 l -80,-25.125 -80,33.125 -20.59375,32.59375 -113.6875,272.84375 68.5625,95.71875 145.71875,65.71875 z"
         style="fill:url(#linearGradient3665);fill-opacity:1;stroke:#000000;stroke-width:20;stroke-linecap:butt;stroke-linejoin:round;stroke-miterlimit:4;stroke-opacity:1;stroke-dasharray:none" />
      <path
         id="path3627-9"
         d="m 278,542.07647 c 11.42857,0 71.42857,25.71428 71.42857,25.71428 l 11.42857,-54.28571 -71.42857,-20 L 278,542.07647 z"
         style="fill:#9a0b0b;fill-opacity:0.50431064;stroke:none" />
      <path
         id="path3627"
         d="m 260,618.07647 c 11.42857,0 71.42857,25.71428 71.42857,25.71428 l 11.42857,-54.28571 -71.42857,-20 L 260,618.07647 z"
         style="fill:#9a0b0b;fill-opacity:0.50431058;stroke:none" />
      <path
         id="path3621"
         d="M 391.42857,392.36218 420,440.93361 l -48.57143,17.14286 -85.71428,248.57143 42.85714,80 91.42857,48.57143 -14.28571,14.28571 -122.85715,-48.57143 -65.71428,-97.14286 140,-314.28571 34.28571,2.85714 z"
         style="fill:#000000;fill-opacity:0.1896552;stroke:none" />
      <path
         id="path3623"
         d="m 437.14286,563.79075 -42.85715,8.57143 -40,62.85715 -2.85714,-22.85715 40,-71.42857 -68.57143,77.14286 8.57143,97.14286 77.14286,82.85714 L 362.85714,695.21933 400,629.50504 l 37.14286,-45.71429 42.85714,0 34.28571,42.85715 -31.42857,-68.57143 -45.71428,5.71428 z"
         style="fill:#000000;fill-opacity:0.24568966;stroke:none" />
      <path
         id="path3625"
         d="m 491.42857,446.6479 c 2.85714,17.14285 71.42857,200 71.42857,200 l 11.42857,62.85714 -42.85714,34.28571 -14.28571,-31.42857 11.42857,-34.28571 c 0,0 -14.28572,-48.57143 -14.28572,-34.28572 0,14.28572 -14.28571,100 -14.28571,100 l -45.71429,60 62.85715,-42.85714 22.85714,0 74.28571,-62.85714 L 491.42857,446.6479 z"
         style="fill:#c9c9c9;fill-opacity:0.42672412;stroke:none" />
      <path
         id="path3651"
         d="m 405.71429,469.50504 8.57142,40 51.42858,2.85714 14.28571,20 -91.42857,-5.71428 17.14286,-57.14286 z"
         style="fill:#333333;fill-opacity:0.25431034;stroke:none" />
      <path
         id="path3653"
         d="m 417.14286,492.36218 57.14285,2.85715 L 460,503.79075 417.14286,492.36218 z"
         style="fill:#333333;fill-opacity:1;stroke:none" />
    </g>
    <g
       id="g3624"
       inkscape:export-filename="/home/nikolaj/code/jplay/res/drawable/bullet.png"
       inkscape:export-xdpi="9.6300001"
       inkscape:export-ydpi="9.6300001">
      <path
         sodipodi:nodetypes="cccsccc"
         id="rect2837"
         d="m -109.7517,516.53375 c 20.484247,0 36.975173,46.61761 36.975173,49.86908 l 0,77.47178 c 0,3.25147 -16.490926,5.86907 -36.975173,5.86907 -20.48424,0 -36.97517,-2.6176 -36.97517,-5.86907 l 0,-77.47178 c 0,-3.25147 16.49093,-49.86908 36.97517,-49.86908 z"
         style="color:#000000;fill:url(#linearGradient3618);fill-opacity:1;fill-rule:nonzero;stroke:#000000;stroke-width:10;marker:none;visibility:visible;display:inline;overflow:visible;enable-background:accumulate;stroke-opacity:1;stroke-miterlimit:4;stroke-dasharray:none" />
      <path
         sodipodi:nodetypes="cscscc"
         id="path3620"
         d="m -140.98871,566.40282 c 1.17381,4.69526 3.43566,49.08352 24.56433,59.64785 21.12867,10.56434 37.778782,10.56434 37.778782,10.56434 0,0 -14.911964,7.73814 -27.823932,5.39051 -12.91196,-2.34762 -32.04063,-2.69525 -32.04063,-2.69525 l -2.47855,-72.90745 z"
         style="fill:#000000;stroke:none;stroke-width:1px;stroke-linecap:butt;stroke-linejoin:miter;stroke-opacity:1;fill-opacity:0.38362067999999999" />
      <path
         id="path3622"
         d="m -132.64108,538.23126 c 0,0 34.040629,21.12867 41.083518,11.73815 7.04289,-9.39052 7.04289,-10.56434 7.04289,-10.56434 l -19.954858,-23.47629 -14.08577,2.34763 -14.08578,19.95485 z"
         style="fill:#000000;stroke:none;stroke-width:1px;stroke-linecap:butt;stroke-linejoin:miter;stroke-opacity:0.54741377000000002;fill-opacity:0.12931034" />
    </g>
  </g>
</svg>
